<mxfile host="Electron" agent="Mozilla/5.0 (Windows NT 10.0; Win64; x64) AppleWebKit/537.36 (KHTML, like Gecko) draw.io/28.1.2 Chrome/138.0.7204.243 Electron/37.4.0 Safari/537.36" version="28.1.2">
  <diagram name="Pagina-1" id="fNpiC-FHSPH7P1INSQcV">
    <mxGraphModel dx="679" dy="404" grid="1" gridSize="10" guides="1" tooltips="1" connect="1" arrows="1" fold="1" page="1" pageScale="1" pageWidth="827" pageHeight="1169" math="0" shadow="0">
      <root>
        <mxCell id="0" />
        <mxCell id="1" parent="0" />
        <mxCell id="4u5RYyjOwf4kJ6HDI8E7-2" value="" style="shape=hexagon;perimeter=hexagonPerimeter2;whiteSpace=wrap;html=1;fixedSize=1;" vertex="1" parent="1">
          <mxGeometry x="300" y="300" width="240" height="180" as="geometry" />
        </mxCell>
        <mxCell id="4u5RYyjOwf4kJ6HDI8E7-1" value="BACKEND" style="shape=hexagon;perimeter=hexagonPerimeter2;whiteSpace=wrap;html=1;fixedSize=1;" vertex="1" parent="1">
          <mxGeometry x="340" y="330" width="160" height="120" as="geometry" />
        </mxCell>
        <mxCell id="4u5RYyjOwf4kJ6HDI8E7-3" value="&lt;font style=&quot;font-size: 9px;&quot;&gt;Event&lt;br&gt;Interface&lt;/font&gt;" style="rounded=1;whiteSpace=wrap;html=1;" vertex="1" parent="1">
          <mxGeometry x="332" y="340" width="40" height="30" as="geometry" />
        </mxCell>
        <mxCell id="4u5RYyjOwf4kJ6HDI8E7-4" value="WebSocketListener" style="rounded=0;whiteSpace=wrap;html=1;" vertex="1" parent="1">
          <mxGeometry x="213" y="306" width="112" height="43" as="geometry" />
        </mxCell>
        <mxCell id="4u5RYyjOwf4kJ6HDI8E7-6" value="" style="endArrow=none;html=1;rounded=0;entryX=0;entryY=0.5;entryDx=0;entryDy=0;exitX=1;exitY=1;exitDx=0;exitDy=0;" edge="1" parent="1" source="4u5RYyjOwf4kJ6HDI8E7-4" target="4u5RYyjOwf4kJ6HDI8E7-3">
          <mxGeometry width="50" height="50" relative="1" as="geometry">
            <mxPoint x="215" y="460" as="sourcePoint" />
            <mxPoint x="265" y="410" as="targetPoint" />
          </mxGeometry>
        </mxCell>
        <mxCell id="4u5RYyjOwf4kJ6HDI8E7-7" value="&lt;font size=&quot;1&quot;&gt;Command&lt;br&gt;Interface&lt;/font&gt;" style="rounded=1;whiteSpace=wrap;html=1;" vertex="1" parent="1">
          <mxGeometry x="460" y="410" width="56" height="30" as="geometry" />
        </mxCell>
        <mxCell id="4u5RYyjOwf4kJ6HDI8E7-8" value="Rest API" style="rounded=0;whiteSpace=wrap;html=1;" vertex="1" parent="1">
          <mxGeometry x="528" y="426" width="112" height="43" as="geometry" />
        </mxCell>
        <mxCell id="4u5RYyjOwf4kJ6HDI8E7-9" value="" style="endArrow=none;html=1;rounded=0;entryX=1;entryY=1;entryDx=0;entryDy=0;exitX=0;exitY=0.5;exitDx=0;exitDy=0;" edge="1" parent="1" source="4u5RYyjOwf4kJ6HDI8E7-8" target="4u5RYyjOwf4kJ6HDI8E7-7">
          <mxGeometry width="50" height="50" relative="1" as="geometry">
            <mxPoint x="400" y="430" as="sourcePoint" />
            <mxPoint x="450" y="380" as="targetPoint" />
          </mxGeometry>
        </mxCell>
        <mxCell id="4u5RYyjOwf4kJ6HDI8E7-11" style="edgeStyle=orthogonalEdgeStyle;rounded=0;orthogonalLoop=1;jettySize=auto;html=1;" edge="1" parent="1" source="4u5RYyjOwf4kJ6HDI8E7-10">
          <mxGeometry relative="1" as="geometry">
            <mxPoint x="269" y="350" as="targetPoint" />
          </mxGeometry>
        </mxCell>
        <mxCell id="4u5RYyjOwf4kJ6HDI8E7-12" style="edgeStyle=orthogonalEdgeStyle;rounded=0;orthogonalLoop=1;jettySize=auto;html=1;entryX=0.5;entryY=1;entryDx=0;entryDy=0;" edge="1" parent="1" source="4u5RYyjOwf4kJ6HDI8E7-10" target="4u5RYyjOwf4kJ6HDI8E7-8">
          <mxGeometry relative="1" as="geometry" />
        </mxCell>
        <mxCell id="4u5RYyjOwf4kJ6HDI8E7-10" value="Web Interface" style="verticalLabelPosition=bottom;aspect=fixed;html=1;shape=mxgraph.salesforce.web2;fillColorStyles=fillColor2,fillColor3;fillColor2=#032d60;fillColor3=#ffffff;fillColor=none;strokeColor=none;" vertex="1" parent="1">
          <mxGeometry x="239" y="490" width="60" height="60" as="geometry" />
        </mxCell>
        <mxCell id="4u5RYyjOwf4kJ6HDI8E7-13" value="User Repo&lt;br&gt;Interface" style="rounded=1;whiteSpace=wrap;html=1;" vertex="1" parent="1">
          <mxGeometry x="450" y="340" width="60" height="40" as="geometry" />
        </mxCell>
        <mxCell id="4u5RYyjOwf4kJ6HDI8E7-14" value="JsonDAO" style="rounded=0;whiteSpace=wrap;html=1;" vertex="1" parent="1">
          <mxGeometry x="528" y="310" width="72" height="39" as="geometry" />
        </mxCell>
        <mxCell id="4u5RYyjOwf4kJ6HDI8E7-15" value="" style="endArrow=none;html=1;rounded=0;exitX=1;exitY=0;exitDx=0;exitDy=0;entryX=0;entryY=0.5;entryDx=0;entryDy=0;" edge="1" parent="1" source="4u5RYyjOwf4kJ6HDI8E7-13" target="4u5RYyjOwf4kJ6HDI8E7-14">
          <mxGeometry width="50" height="50" relative="1" as="geometry">
            <mxPoint x="510" y="380" as="sourcePoint" />
            <mxPoint x="560" y="330" as="targetPoint" />
          </mxGeometry>
        </mxCell>
        <mxCell id="4u5RYyjOwf4kJ6HDI8E7-16" value="&lt;br&gt;&lt;br&gt;&lt;br&gt;&lt;br&gt;JSON DB" style="shape=cylinder3;whiteSpace=wrap;html=1;boundedLbl=1;backgroundOutline=1;size=15;" vertex="1" parent="1">
          <mxGeometry x="630" y="240" width="40" height="50" as="geometry" />
        </mxCell>
        <mxCell id="4u5RYyjOwf4kJ6HDI8E7-17" style="edgeStyle=orthogonalEdgeStyle;rounded=0;orthogonalLoop=1;jettySize=auto;html=1;entryX=0;entryY=0.5;entryDx=0;entryDy=0;entryPerimeter=0;exitX=0.5;exitY=0;exitDx=0;exitDy=0;" edge="1" parent="1" source="4u5RYyjOwf4kJ6HDI8E7-14" target="4u5RYyjOwf4kJ6HDI8E7-16">
          <mxGeometry relative="1" as="geometry" />
        </mxCell>
      </root>
    </mxGraphModel>
  </diagram>
</mxfile>
